<?xml version="1.0" standalone="no"?><!DOCTYPE svg PUBLIC "-//W3C//DTD SVG 1.1//EN" "http://www.w3.org/Graphics/SVG/1.1/DTD/svg11.dtd"><svg t="1660295137380" class="icon" viewBox="0 0 1219 1024" version="1.1" xmlns="http://www.w3.org/2000/svg" p-id="3224" xmlns:xlink="http://www.w3.org/1999/xlink" width="76.1875" height="64"><defs><style type="text/css">@font-face { font-family: feedback-iconfont; src: url("//at.alicdn.com/t/font_1031158_u69w8yhxdu.woff2?t=1630033759944") format("woff2"), url("//at.alicdn.com/t/font_1031158_u69w8yhxdu.woff?t=1630033759944") format("woff"), url("//at.alicdn.com/t/font_1031158_u69w8yhxdu.ttf?t=1630033759944") format("truetype"); }
</style></defs><path d="M763.095797 211.70868c-170.419652-74.346272-369.507214 3.77739-443.965303 174.140117-74.346272 170.405421 3.77739 369.549908 174.168579 443.894146 49.870493 21.838925 102.266023 30.505778 153.246556 27.67172 43.923848-2.498607 86.707161-13.670167 126.13189-32.284689l0.083354 0.223634c4.001024-1.500384 39.093343-15.33726 48.900733-48.786882 6.056429-20.779711 0.500128-43.00898-16.006131-65.78717 4.946388-5.558334 5.698614-13.393673 1.890728-19.504994v-0.056925L744.702876 591.647426c-4.834571-7.83534-14.889991-9.833819-22.530159-5.16799l-32.036658 27.114667c-15.556829 7.503954-30.056476-8.166725-55.867964-41.173144l-53.649916-84.83473c-10.695828-21.836892-19.360648-44.062095-4.330377-55.284481l36.838701-19.393177v-0.056925c8.002049-5.056173 9.724035-15.225443 5.058206-22.50373v-0.056925l-62.847393-99.682028c-4.779679-7.725555-14.835099-9.892777-22.448837-5.113098l-32.811247 25.780992c-19.309822 16.89457-66.539395 95.128016 36.480885 262.642453 106.8241 173.918516 203.810316 170.031341 228.092956 157.859525l10.669399-5.00128-3.446004 2.167221c9.667109 12.779695 16.892537 27.614794 14.503713 36.116972-3.086156 10.891-22.172344 23.617836-29.560414 27.283408-36.062079 17.116171-75.405486 27.004882-115.578374 28.78176-44.450406 2.000512-89.960026-5.832794-133.355284-24.83766-151.998269-66.344223-221.676679-243.818527-155.249101-395.833061 66.315761-151.967773 243.875452-221.648216 395.902183-155.358885 151.25011 66.06773 220.869562 242.318143 156.078582 393.775623-1.636598 1.719953-3.389079 7.888199-3.972562 10.279055-2.138759 8.443219 4.917926 13.113114 15.339294 15.668646 10.388839 2.669383 11.917686 2.669383 18.752769-4.220593 0.221601-0.780688 3.834315-7.778414 3.834315-8.559102 71.735848-169.618634-6.223138-366.486115-175.473792-440.332259" fill="#ffffff" p-id="3225"></path></svg>